<?xml version="1.0" encoding="utf-8" standalone="no"?>
<!DOCTYPE svg PUBLIC "-//W3C//DTD SVG 1.1//EN" "http://www.w3.org/Graphics/SVG/1.1/DTD/svg11.dtd">

<svg width="210mm" height="297mm" viewBox="0 0 210 297" xmlns="http://www.w3.org/2000/svg" xmlns:xlink="http://www.w3.org/1999/xlink" version="1.1" style="stroke:black; fill:none; stroke-width:0.5pt; stroke-linejoin:round; text-anchor:middle" font-family="Helvetica, Arial, FreeSans, Sans, sans, sans-serif">

<g>

<rect x="15.0" y="28.5" width="20.0" height="20.0" fill="black" stroke="none" />

<rect x="40.0" y="33.5" width="10.0" height="10.0" fill="black" stroke="none" />

<rect x="41.42857142857143" y="34.92857142857143" width="1.4285714285714286" height="1.4285714285714286" fill="white" stroke="white" stroke-width="0.2" />

<rect x="41.42857142857143" y="36.357142857142854" width="1.4285714285714286" height="1.4285714285714286" fill="white" stroke="white" stroke-width="0.2" />

<rect x="41.42857142857143" y="37.785714285714285" width="1.4285714285714286" height="1.4285714285714286" fill="white" stroke="white" stroke-width="0.2" />

<rect x="41.42857142857143" y="39.214285714285715" width="1.4285714285714286" height="1.4285714285714286" fill="white" stroke="white" stroke-width="0.2" />

<rect x="41.42857142857143" y="40.642857142857146" width="1.4285714285714286" height="1.4285714285714286" fill="white" stroke="white" stroke-width="0.2" />

<rect x="55.0" y="28.5" width="20.0" height="20.0" fill="black" stroke="none" />

<rect x="80.0" y="33.5" width="10.0" height="10.0" fill="black" stroke="none" />

<rect x="81.42857142857143" y="34.92857142857143" width="1.4285714285714286" height="1.4285714285714286" fill="white" stroke="white" stroke-width="0.2" />

<rect x="81.42857142857143" y="36.357142857142854" width="1.4285714285714286" height="1.4285714285714286" fill="white" stroke="white" stroke-width="0.2" />

<rect x="81.42857142857143" y="37.785714285714285" width="1.4285714285714286" height="1.4285714285714286" fill="white" stroke="white" stroke-width="0.2" />

<rect x="81.42857142857143" y="39.214285714285715" width="1.4285714285714286" height="1.4285714285714286" fill="white" stroke="white" stroke-width="0.2" />

<rect x="81.42857142857143" y="40.642857142857146" width="1.4285714285714286" height="1.4285714285714286" fill="white" stroke="white" stroke-width="0.2" />

<rect x="84.28571428571429" y="40.642857142857146" width="1.4285714285714286" height="1.4285714285714286" fill="white" stroke="white" stroke-width="0.2" />

<rect x="85.71428571428571" y="40.642857142857146" width="1.4285714285714286" height="1.4285714285714286" fill="white" stroke="white" stroke-width="0.2" />

<rect x="87.14285714285714" y="40.642857142857146" width="1.4285714285714286" height="1.4285714285714286" fill="white" stroke="white" stroke-width="0.2" />

<rect x="95.0" y="28.5" width="20.0" height="20.0" fill="black" stroke="none" />

<rect x="120.0" y="33.5" width="10.0" height="10.0" fill="black" stroke="none" />

<rect x="121.42857142857143" y="34.92857142857143" width="1.4285714285714286" height="1.4285714285714286" fill="white" stroke="white" stroke-width="0.2" />

<rect x="121.42857142857143" y="36.357142857142854" width="1.4285714285714286" height="1.4285714285714286" fill="white" stroke="white" stroke-width="0.2" />

<rect x="121.42857142857143" y="37.785714285714285" width="1.4285714285714286" height="1.4285714285714286" fill="white" stroke="white" stroke-width="0.2" />

<rect x="121.42857142857143" y="39.214285714285715" width="1.4285714285714286" height="1.4285714285714286" fill="white" stroke="white" stroke-width="0.2" />

<rect x="122.85714285714286" y="40.642857142857146" width="1.4285714285714286" height="1.4285714285714286" fill="white" stroke="white" stroke-width="0.2" />

<rect x="127.14285714285714" y="40.642857142857146" width="1.4285714285714286" height="1.4285714285714286" fill="white" stroke="white" stroke-width="0.2" />

<rect x="135.0" y="28.5" width="20.0" height="20.0" fill="black" stroke="none" />

<rect x="160.0" y="33.5" width="10.0" height="10.0" fill="black" stroke="none" />

<rect x="161.42857142857142" y="34.92857142857143" width="1.4285714285714286" height="1.4285714285714286" fill="white" stroke="white" stroke-width="0.2" />

<rect x="161.42857142857142" y="36.357142857142854" width="1.4285714285714286" height="1.4285714285714286" fill="white" stroke="white" stroke-width="0.2" />

<rect x="161.42857142857142" y="37.785714285714285" width="1.4285714285714286" height="1.4285714285714286" fill="white" stroke="white" stroke-width="0.2" />

<rect x="161.42857142857142" y="39.214285714285715" width="1.4285714285714286" height="1.4285714285714286" fill="white" stroke="white" stroke-width="0.2" />

<rect x="162.85714285714286" y="40.642857142857146" width="1.4285714285714286" height="1.4285714285714286" fill="white" stroke="white" stroke-width="0.2" />

<rect x="164.28571428571428" y="40.642857142857146" width="1.4285714285714286" height="1.4285714285714286" fill="white" stroke="white" stroke-width="0.2" />

<rect x="165.71428571428572" y="40.642857142857146" width="1.4285714285714286" height="1.4285714285714286" fill="white" stroke="white" stroke-width="0.2" />

<rect x="175.0" y="28.5" width="20.0" height="20.0" fill="black" stroke="none" />

<rect x="20.0" y="53.5" width="10.0" height="10.0" fill="black" stroke="none" />

<rect x="21.428571428571427" y="54.92857142857143" width="1.4285714285714286" height="1.4285714285714286" fill="white" stroke="white" stroke-width="0.2" />

<rect x="21.428571428571427" y="56.357142857142854" width="1.4285714285714286" height="1.4285714285714286" fill="white" stroke="white" stroke-width="0.2" />

<rect x="21.428571428571427" y="57.785714285714285" width="1.4285714285714286" height="1.4285714285714286" fill="white" stroke="white" stroke-width="0.2" />

<rect x="21.428571428571427" y="59.214285714285715" width="1.4285714285714286" height="1.4285714285714286" fill="white" stroke="white" stroke-width="0.2" />

<rect x="21.428571428571427" y="60.642857142857146" width="1.4285714285714286" height="1.4285714285714286" fill="white" stroke="white" stroke-width="0.2" />

<rect x="24.285714285714285" y="59.214285714285715" width="1.4285714285714286" height="1.4285714285714286" fill="white" stroke="white" stroke-width="0.2" />

<rect x="25.714285714285715" y="59.214285714285715" width="1.4285714285714286" height="1.4285714285714286" fill="white" stroke="white" stroke-width="0.2" />

<rect x="27.142857142857142" y="59.214285714285715" width="1.4285714285714286" height="1.4285714285714286" fill="white" stroke="white" stroke-width="0.2" />

<rect x="35.0" y="48.5" width="20.0" height="20.0" fill="black" stroke="none" />

<rect x="60.0" y="53.5" width="10.0" height="10.0" fill="black" stroke="none" />

<rect x="61.42857142857143" y="54.92857142857143" width="1.4285714285714286" height="1.4285714285714286" fill="white" stroke="white" stroke-width="0.2" />

<rect x="61.42857142857143" y="56.357142857142854" width="1.4285714285714286" height="1.4285714285714286" fill="white" stroke="white" stroke-width="0.2" />

<rect x="61.42857142857143" y="57.785714285714285" width="1.4285714285714286" height="1.4285714285714286" fill="white" stroke="white" stroke-width="0.2" />

<rect x="61.42857142857143" y="59.214285714285715" width="1.4285714285714286" height="1.4285714285714286" fill="white" stroke="white" stroke-width="0.2" />

<rect x="61.42857142857143" y="60.642857142857146" width="1.4285714285714286" height="1.4285714285714286" fill="white" stroke="white" stroke-width="0.2" />

<rect x="64.28571428571429" y="59.214285714285715" width="1.4285714285714286" height="1.4285714285714286" fill="white" stroke="white" stroke-width="0.2" />

<rect x="64.28571428571429" y="60.642857142857146" width="1.4285714285714286" height="1.4285714285714286" fill="white" stroke="white" stroke-width="0.2" />

<rect x="65.71428571428571" y="59.214285714285715" width="1.4285714285714286" height="1.4285714285714286" fill="white" stroke="white" stroke-width="0.2" />

<rect x="65.71428571428571" y="60.642857142857146" width="1.4285714285714286" height="1.4285714285714286" fill="white" stroke="white" stroke-width="0.2" />

<rect x="67.14285714285714" y="59.214285714285715" width="1.4285714285714286" height="1.4285714285714286" fill="white" stroke="white" stroke-width="0.2" />

<rect x="67.14285714285714" y="60.642857142857146" width="1.4285714285714286" height="1.4285714285714286" fill="white" stroke="white" stroke-width="0.2" />

<rect x="75.0" y="48.5" width="20.0" height="20.0" fill="black" stroke="none" />

<rect x="100.0" y="53.5" width="10.0" height="10.0" fill="black" stroke="none" />

<rect x="101.42857142857143" y="54.92857142857143" width="1.4285714285714286" height="1.4285714285714286" fill="white" stroke="white" stroke-width="0.2" />

<rect x="101.42857142857143" y="56.357142857142854" width="1.4285714285714286" height="1.4285714285714286" fill="white" stroke="white" stroke-width="0.2" />

<rect x="101.42857142857143" y="57.785714285714285" width="1.4285714285714286" height="1.4285714285714286" fill="white" stroke="white" stroke-width="0.2" />

<rect x="101.42857142857143" y="59.214285714285715" width="1.4285714285714286" height="1.4285714285714286" fill="white" stroke="white" stroke-width="0.2" />

<rect x="102.85714285714286" y="60.642857142857146" width="1.4285714285714286" height="1.4285714285714286" fill="white" stroke="white" stroke-width="0.2" />

<rect x="104.28571428571429" y="59.214285714285715" width="1.4285714285714286" height="1.4285714285714286" fill="white" stroke="white" stroke-width="0.2" />

<rect x="105.71428571428571" y="59.214285714285715" width="1.4285714285714286" height="1.4285714285714286" fill="white" stroke="white" stroke-width="0.2" />

<rect x="107.14285714285714" y="59.214285714285715" width="1.4285714285714286" height="1.4285714285714286" fill="white" stroke="white" stroke-width="0.2" />

<rect x="107.14285714285714" y="60.642857142857146" width="1.4285714285714286" height="1.4285714285714286" fill="white" stroke="white" stroke-width="0.2" />

<rect x="115.0" y="48.5" width="20.0" height="20.0" fill="black" stroke="none" />

<rect x="140.0" y="53.5" width="10.0" height="10.0" fill="black" stroke="none" />

<rect x="141.42857142857142" y="54.92857142857143" width="1.4285714285714286" height="1.4285714285714286" fill="white" stroke="white" stroke-width="0.2" />

<rect x="141.42857142857142" y="56.357142857142854" width="1.4285714285714286" height="1.4285714285714286" fill="white" stroke="white" stroke-width="0.2" />

<rect x="141.42857142857142" y="57.785714285714285" width="1.4285714285714286" height="1.4285714285714286" fill="white" stroke="white" stroke-width="0.2" />

<rect x="141.42857142857142" y="59.214285714285715" width="1.4285714285714286" height="1.4285714285714286" fill="white" stroke="white" stroke-width="0.2" />

<rect x="142.85714285714286" y="60.642857142857146" width="1.4285714285714286" height="1.4285714285714286" fill="white" stroke="white" stroke-width="0.2" />

<rect x="144.28571428571428" y="59.214285714285715" width="1.4285714285714286" height="1.4285714285714286" fill="white" stroke="white" stroke-width="0.2" />

<rect x="144.28571428571428" y="60.642857142857146" width="1.4285714285714286" height="1.4285714285714286" fill="white" stroke="white" stroke-width="0.2" />

<rect x="145.71428571428572" y="59.214285714285715" width="1.4285714285714286" height="1.4285714285714286" fill="white" stroke="white" stroke-width="0.2" />

<rect x="145.71428571428572" y="60.642857142857146" width="1.4285714285714286" height="1.4285714285714286" fill="white" stroke="white" stroke-width="0.2" />

<rect x="147.14285714285714" y="59.214285714285715" width="1.4285714285714286" height="1.4285714285714286" fill="white" stroke="white" stroke-width="0.2" />

<rect x="155.0" y="48.5" width="20.0" height="20.0" fill="black" stroke="none" />

<rect x="180.0" y="53.5" width="10.0" height="10.0" fill="black" stroke="none" />

<rect x="181.42857142857142" y="54.92857142857143" width="1.4285714285714286" height="1.4285714285714286" fill="white" stroke="white" stroke-width="0.2" />

<rect x="181.42857142857142" y="56.357142857142854" width="1.4285714285714286" height="1.4285714285714286" fill="white" stroke="white" stroke-width="0.2" />

<rect x="181.42857142857142" y="57.785714285714285" width="1.4285714285714286" height="1.4285714285714286" fill="white" stroke="white" stroke-width="0.2" />

<rect x="181.42857142857142" y="60.642857142857146" width="1.4285714285714286" height="1.4285714285714286" fill="white" stroke="white" stroke-width="0.2" />

<rect x="182.85714285714286" y="59.214285714285715" width="1.4285714285714286" height="1.4285714285714286" fill="white" stroke="white" stroke-width="0.2" />

<rect x="187.14285714285714" y="59.214285714285715" width="1.4285714285714286" height="1.4285714285714286" fill="white" stroke="white" stroke-width="0.2" />

<rect x="15.0" y="68.5" width="20.0" height="20.0" fill="black" stroke="none" />

<rect x="40.0" y="73.5" width="10.0" height="10.0" fill="black" stroke="none" />

<rect x="41.42857142857143" y="74.92857142857143" width="1.4285714285714286" height="1.4285714285714286" fill="white" stroke="white" stroke-width="0.2" />

<rect x="41.42857142857143" y="76.35714285714286" width="1.4285714285714286" height="1.4285714285714286" fill="white" stroke="white" stroke-width="0.2" />

<rect x="41.42857142857143" y="77.78571428571429" width="1.4285714285714286" height="1.4285714285714286" fill="white" stroke="white" stroke-width="0.2" />

<rect x="41.42857142857143" y="80.64285714285714" width="1.4285714285714286" height="1.4285714285714286" fill="white" stroke="white" stroke-width="0.2" />

<rect x="42.857142857142854" y="79.21428571428571" width="1.4285714285714286" height="1.4285714285714286" fill="white" stroke="white" stroke-width="0.2" />

<rect x="44.285714285714285" y="80.64285714285714" width="1.4285714285714286" height="1.4285714285714286" fill="white" stroke="white" stroke-width="0.2" />

<rect x="45.714285714285715" y="80.64285714285714" width="1.4285714285714286" height="1.4285714285714286" fill="white" stroke="white" stroke-width="0.2" />

<rect x="47.142857142857146" y="79.21428571428571" width="1.4285714285714286" height="1.4285714285714286" fill="white" stroke="white" stroke-width="0.2" />

<rect x="47.142857142857146" y="80.64285714285714" width="1.4285714285714286" height="1.4285714285714286" fill="white" stroke="white" stroke-width="0.2" />

<rect x="55.0" y="68.5" width="20.0" height="20.0" fill="black" stroke="none" />

<rect x="80.0" y="73.5" width="10.0" height="10.0" fill="black" stroke="none" />

<rect x="81.42857142857143" y="74.92857142857143" width="1.4285714285714286" height="1.4285714285714286" fill="white" stroke="white" stroke-width="0.2" />

<rect x="81.42857142857143" y="76.35714285714286" width="1.4285714285714286" height="1.4285714285714286" fill="white" stroke="white" stroke-width="0.2" />

<rect x="81.42857142857143" y="77.78571428571429" width="1.4285714285714286" height="1.4285714285714286" fill="white" stroke="white" stroke-width="0.2" />

<rect x="82.85714285714286" y="79.21428571428571" width="1.4285714285714286" height="1.4285714285714286" fill="white" stroke="white" stroke-width="0.2" />

<rect x="82.85714285714286" y="80.64285714285714" width="1.4285714285714286" height="1.4285714285714286" fill="white" stroke="white" stroke-width="0.2" />

<rect x="87.14285714285714" y="79.21428571428571" width="1.4285714285714286" height="1.4285714285714286" fill="white" stroke="white" stroke-width="0.2" />

<rect x="87.14285714285714" y="80.64285714285714" width="1.4285714285714286" height="1.4285714285714286" fill="white" stroke="white" stroke-width="0.2" />

<rect x="95.0" y="68.5" width="20.0" height="20.0" fill="black" stroke="none" />

<rect x="120.0" y="73.5" width="10.0" height="10.0" fill="black" stroke="none" />

<rect x="121.42857142857143" y="74.92857142857143" width="1.4285714285714286" height="1.4285714285714286" fill="white" stroke="white" stroke-width="0.2" />

<rect x="121.42857142857143" y="76.35714285714286" width="1.4285714285714286" height="1.4285714285714286" fill="white" stroke="white" stroke-width="0.2" />

<rect x="121.42857142857143" y="77.78571428571429" width="1.4285714285714286" height="1.4285714285714286" fill="white" stroke="white" stroke-width="0.2" />

<rect x="122.85714285714286" y="79.21428571428571" width="1.4285714285714286" height="1.4285714285714286" fill="white" stroke="white" stroke-width="0.2" />

<rect x="122.85714285714286" y="80.64285714285714" width="1.4285714285714286" height="1.4285714285714286" fill="white" stroke="white" stroke-width="0.2" />

<rect x="124.28571428571429" y="80.64285714285714" width="1.4285714285714286" height="1.4285714285714286" fill="white" stroke="white" stroke-width="0.2" />

<rect x="125.71428571428571" y="80.64285714285714" width="1.4285714285714286" height="1.4285714285714286" fill="white" stroke="white" stroke-width="0.2" />

<rect x="127.14285714285714" y="79.21428571428571" width="1.4285714285714286" height="1.4285714285714286" fill="white" stroke="white" stroke-width="0.2" />

<rect x="135.0" y="68.5" width="20.0" height="20.0" fill="black" stroke="none" />

<rect x="160.0" y="73.5" width="10.0" height="10.0" fill="black" stroke="none" />

<rect x="161.42857142857142" y="74.92857142857143" width="1.4285714285714286" height="1.4285714285714286" fill="white" stroke="white" stroke-width="0.2" />

<rect x="161.42857142857142" y="76.35714285714286" width="1.4285714285714286" height="1.4285714285714286" fill="white" stroke="white" stroke-width="0.2" />

<rect x="161.42857142857142" y="77.78571428571429" width="1.4285714285714286" height="1.4285714285714286" fill="white" stroke="white" stroke-width="0.2" />

<rect x="161.42857142857142" y="80.64285714285714" width="1.4285714285714286" height="1.4285714285714286" fill="white" stroke="white" stroke-width="0.2" />

<rect x="162.85714285714286" y="79.21428571428571" width="1.4285714285714286" height="1.4285714285714286" fill="white" stroke="white" stroke-width="0.2" />

<rect x="164.28571428571428" y="79.21428571428571" width="1.4285714285714286" height="1.4285714285714286" fill="white" stroke="white" stroke-width="0.2" />

<rect x="165.71428571428572" y="79.21428571428571" width="1.4285714285714286" height="1.4285714285714286" fill="white" stroke="white" stroke-width="0.2" />

<rect x="175.0" y="68.5" width="20.0" height="20.0" fill="black" stroke="none" />

<rect x="20.0" y="93.5" width="10.0" height="10.0" fill="black" stroke="none" />

<rect x="21.428571428571427" y="94.92857142857143" width="1.4285714285714286" height="1.4285714285714286" fill="white" stroke="white" stroke-width="0.2" />

<rect x="21.428571428571427" y="96.35714285714286" width="1.4285714285714286" height="1.4285714285714286" fill="white" stroke="white" stroke-width="0.2" />

<rect x="21.428571428571427" y="97.78571428571429" width="1.4285714285714286" height="1.4285714285714286" fill="white" stroke="white" stroke-width="0.2" />

<rect x="21.428571428571427" y="100.64285714285714" width="1.4285714285714286" height="1.4285714285714286" fill="white" stroke="white" stroke-width="0.2" />

<rect x="22.857142857142858" y="99.21428571428571" width="1.4285714285714286" height="1.4285714285714286" fill="white" stroke="white" stroke-width="0.2" />

<rect x="24.285714285714285" y="99.21428571428571" width="1.4285714285714286" height="1.4285714285714286" fill="white" stroke="white" stroke-width="0.2" />

<rect x="24.285714285714285" y="100.64285714285714" width="1.4285714285714286" height="1.4285714285714286" fill="white" stroke="white" stroke-width="0.2" />

<rect x="25.714285714285715" y="99.21428571428571" width="1.4285714285714286" height="1.4285714285714286" fill="white" stroke="white" stroke-width="0.2" />

<rect x="25.714285714285715" y="100.64285714285714" width="1.4285714285714286" height="1.4285714285714286" fill="white" stroke="white" stroke-width="0.2" />

<rect x="27.142857142857142" y="100.64285714285714" width="1.4285714285714286" height="1.4285714285714286" fill="white" stroke="white" stroke-width="0.2" />

<rect x="35.0" y="88.5" width="20.0" height="20.0" fill="black" stroke="none" />

<rect x="60.0" y="93.5" width="10.0" height="10.0" fill="black" stroke="none" />

<rect x="61.42857142857143" y="94.92857142857143" width="1.4285714285714286" height="1.4285714285714286" fill="white" stroke="white" stroke-width="0.2" />

<rect x="61.42857142857143" y="96.35714285714286" width="1.4285714285714286" height="1.4285714285714286" fill="white" stroke="white" stroke-width="0.2" />

<rect x="61.42857142857143" y="97.78571428571429" width="1.4285714285714286" height="1.4285714285714286" fill="white" stroke="white" stroke-width="0.2" />

<rect x="62.857142857142854" y="99.21428571428571" width="1.4285714285714286" height="1.4285714285714286" fill="white" stroke="white" stroke-width="0.2" />

<rect x="62.857142857142854" y="100.64285714285714" width="1.4285714285714286" height="1.4285714285714286" fill="white" stroke="white" stroke-width="0.2" />

<rect x="64.28571428571429" y="99.21428571428571" width="1.4285714285714286" height="1.4285714285714286" fill="white" stroke="white" stroke-width="0.2" />

<rect x="65.71428571428571" y="99.21428571428571" width="1.4285714285714286" height="1.4285714285714286" fill="white" stroke="white" stroke-width="0.2" />

<rect x="67.14285714285714" y="100.64285714285714" width="1.4285714285714286" height="1.4285714285714286" fill="white" stroke="white" stroke-width="0.2" />

<rect x="75.0" y="88.5" width="20.0" height="20.0" fill="black" stroke="none" />

<rect x="100.0" y="93.5" width="10.0" height="10.0" fill="black" stroke="none" />

<rect x="101.42857142857143" y="94.92857142857143" width="1.4285714285714286" height="1.4285714285714286" fill="white" stroke="white" stroke-width="0.2" />

<rect x="101.42857142857143" y="96.35714285714286" width="1.4285714285714286" height="1.4285714285714286" fill="white" stroke="white" stroke-width="0.2" />

<rect x="101.42857142857143" y="97.78571428571429" width="1.4285714285714286" height="1.4285714285714286" fill="white" stroke="white" stroke-width="0.2" />

<rect x="102.85714285714286" y="99.21428571428571" width="1.4285714285714286" height="1.4285714285714286" fill="white" stroke="white" stroke-width="0.2" />

<rect x="102.85714285714286" y="100.64285714285714" width="1.4285714285714286" height="1.4285714285714286" fill="white" stroke="white" stroke-width="0.2" />

<rect x="104.28571428571429" y="99.21428571428571" width="1.4285714285714286" height="1.4285714285714286" fill="white" stroke="white" stroke-width="0.2" />

<rect x="104.28571428571429" y="100.64285714285714" width="1.4285714285714286" height="1.4285714285714286" fill="white" stroke="white" stroke-width="0.2" />

<rect x="105.71428571428571" y="99.21428571428571" width="1.4285714285714286" height="1.4285714285714286" fill="white" stroke="white" stroke-width="0.2" />

<rect x="105.71428571428571" y="100.64285714285714" width="1.4285714285714286" height="1.4285714285714286" fill="white" stroke="white" stroke-width="0.2" />

<rect x="115.0" y="88.5" width="20.0" height="20.0" fill="black" stroke="none" />

<rect x="140.0" y="93.5" width="10.0" height="10.0" fill="black" stroke="none" />

<rect x="141.42857142857142" y="94.92857142857143" width="1.4285714285714286" height="1.4285714285714286" fill="white" stroke="white" stroke-width="0.2" />

<rect x="141.42857142857142" y="96.35714285714286" width="1.4285714285714286" height="1.4285714285714286" fill="white" stroke="white" stroke-width="0.2" />

<rect x="141.42857142857142" y="97.78571428571429" width="1.4285714285714286" height="1.4285714285714286" fill="white" stroke="white" stroke-width="0.2" />

<rect x="141.42857142857142" y="99.21428571428571" width="1.4285714285714286" height="1.4285714285714286" fill="white" stroke="white" stroke-width="0.2" />

<rect x="141.42857142857142" y="100.64285714285714" width="1.4285714285714286" height="1.4285714285714286" fill="white" stroke="white" stroke-width="0.2" />

<rect x="144.28571428571428" y="97.78571428571429" width="1.4285714285714286" height="1.4285714285714286" fill="white" stroke="white" stroke-width="0.2" />

<rect x="145.71428571428572" y="97.78571428571429" width="1.4285714285714286" height="1.4285714285714286" fill="white" stroke="white" stroke-width="0.2" />

<rect x="147.14285714285714" y="97.78571428571429" width="1.4285714285714286" height="1.4285714285714286" fill="white" stroke="white" stroke-width="0.2" />

<rect x="155.0" y="88.5" width="20.0" height="20.0" fill="black" stroke="none" />

<rect x="180.0" y="93.5" width="10.0" height="10.0" fill="black" stroke="none" />

<rect x="181.42857142857142" y="94.92857142857143" width="1.4285714285714286" height="1.4285714285714286" fill="white" stroke="white" stroke-width="0.2" />

<rect x="181.42857142857142" y="96.35714285714286" width="1.4285714285714286" height="1.4285714285714286" fill="white" stroke="white" stroke-width="0.2" />

<rect x="181.42857142857142" y="97.78571428571429" width="1.4285714285714286" height="1.4285714285714286" fill="white" stroke="white" stroke-width="0.2" />

<rect x="181.42857142857142" y="99.21428571428571" width="1.4285714285714286" height="1.4285714285714286" fill="white" stroke="white" stroke-width="0.2" />

<rect x="181.42857142857142" y="100.64285714285714" width="1.4285714285714286" height="1.4285714285714286" fill="white" stroke="white" stroke-width="0.2" />

<rect x="184.28571428571428" y="97.78571428571429" width="1.4285714285714286" height="1.4285714285714286" fill="white" stroke="white" stroke-width="0.2" />

<rect x="184.28571428571428" y="100.64285714285714" width="1.4285714285714286" height="1.4285714285714286" fill="white" stroke="white" stroke-width="0.2" />

<rect x="185.71428571428572" y="97.78571428571429" width="1.4285714285714286" height="1.4285714285714286" fill="white" stroke="white" stroke-width="0.2" />

<rect x="185.71428571428572" y="100.64285714285714" width="1.4285714285714286" height="1.4285714285714286" fill="white" stroke="white" stroke-width="0.2" />

<rect x="187.14285714285714" y="97.78571428571429" width="1.4285714285714286" height="1.4285714285714286" fill="white" stroke="white" stroke-width="0.2" />

<rect x="187.14285714285714" y="100.64285714285714" width="1.4285714285714286" height="1.4285714285714286" fill="white" stroke="white" stroke-width="0.2" />

<rect x="15.0" y="108.5" width="20.0" height="20.0" fill="black" stroke="none" />

<rect x="40.0" y="113.5" width="10.0" height="10.0" fill="black" stroke="none" />

<rect x="41.42857142857143" y="114.92857142857143" width="1.4285714285714286" height="1.4285714285714286" fill="white" stroke="white" stroke-width="0.2" />

<rect x="41.42857142857143" y="116.35714285714286" width="1.4285714285714286" height="1.4285714285714286" fill="white" stroke="white" stroke-width="0.2" />

<rect x="41.42857142857143" y="117.78571428571429" width="1.4285714285714286" height="1.4285714285714286" fill="white" stroke="white" stroke-width="0.2" />

<rect x="41.42857142857143" y="119.21428571428571" width="1.4285714285714286" height="1.4285714285714286" fill="white" stroke="white" stroke-width="0.2" />

<rect x="42.857142857142854" y="120.64285714285714" width="1.4285714285714286" height="1.4285714285714286" fill="white" stroke="white" stroke-width="0.2" />

<rect x="44.285714285714285" y="117.78571428571429" width="1.4285714285714286" height="1.4285714285714286" fill="white" stroke="white" stroke-width="0.2" />

<rect x="45.714285714285715" y="117.78571428571429" width="1.4285714285714286" height="1.4285714285714286" fill="white" stroke="white" stroke-width="0.2" />

<rect x="47.142857142857146" y="117.78571428571429" width="1.4285714285714286" height="1.4285714285714286" fill="white" stroke="white" stroke-width="0.2" />

<rect x="47.142857142857146" y="120.64285714285714" width="1.4285714285714286" height="1.4285714285714286" fill="white" stroke="white" stroke-width="0.2" />

<rect x="55.0" y="108.5" width="20.0" height="20.0" fill="black" stroke="none" />

<rect x="80.0" y="113.5" width="10.0" height="10.0" fill="black" stroke="none" />

<rect x="81.42857142857143" y="114.92857142857143" width="1.4285714285714286" height="1.4285714285714286" fill="white" stroke="white" stroke-width="0.2" />

<rect x="81.42857142857143" y="116.35714285714286" width="1.4285714285714286" height="1.4285714285714286" fill="white" stroke="white" stroke-width="0.2" />

<rect x="81.42857142857143" y="117.78571428571429" width="1.4285714285714286" height="1.4285714285714286" fill="white" stroke="white" stroke-width="0.2" />

<rect x="81.42857142857143" y="119.21428571428571" width="1.4285714285714286" height="1.4285714285714286" fill="white" stroke="white" stroke-width="0.2" />

<rect x="82.85714285714286" y="120.64285714285714" width="1.4285714285714286" height="1.4285714285714286" fill="white" stroke="white" stroke-width="0.2" />

<rect x="84.28571428571429" y="117.78571428571429" width="1.4285714285714286" height="1.4285714285714286" fill="white" stroke="white" stroke-width="0.2" />

<rect x="84.28571428571429" y="120.64285714285714" width="1.4285714285714286" height="1.4285714285714286" fill="white" stroke="white" stroke-width="0.2" />

<rect x="85.71428571428571" y="117.78571428571429" width="1.4285714285714286" height="1.4285714285714286" fill="white" stroke="white" stroke-width="0.2" />

<rect x="85.71428571428571" y="120.64285714285714" width="1.4285714285714286" height="1.4285714285714286" fill="white" stroke="white" stroke-width="0.2" />

<rect x="87.14285714285714" y="117.78571428571429" width="1.4285714285714286" height="1.4285714285714286" fill="white" stroke="white" stroke-width="0.2" />

<rect x="95.0" y="108.5" width="20.0" height="20.0" fill="black" stroke="none" />

<rect x="120.0" y="113.5" width="10.0" height="10.0" fill="black" stroke="none" />

<rect x="121.42857142857143" y="114.92857142857143" width="1.4285714285714286" height="1.4285714285714286" fill="white" stroke="white" stroke-width="0.2" />

<rect x="121.42857142857143" y="116.35714285714286" width="1.4285714285714286" height="1.4285714285714286" fill="white" stroke="white" stroke-width="0.2" />

<rect x="121.42857142857143" y="117.78571428571429" width="1.4285714285714286" height="1.4285714285714286" fill="white" stroke="white" stroke-width="0.2" />

<rect x="121.42857142857143" y="119.21428571428571" width="1.4285714285714286" height="1.4285714285714286" fill="white" stroke="white" stroke-width="0.2" />

<rect x="121.42857142857143" y="120.64285714285714" width="1.4285714285714286" height="1.4285714285714286" fill="white" stroke="white" stroke-width="0.2" />

<rect x="124.28571428571429" y="117.78571428571429" width="1.4285714285714286" height="1.4285714285714286" fill="white" stroke="white" stroke-width="0.2" />

<rect x="124.28571428571429" y="119.21428571428571" width="1.4285714285714286" height="1.4285714285714286" fill="white" stroke="white" stroke-width="0.2" />

<rect x="125.71428571428571" y="117.78571428571429" width="1.4285714285714286" height="1.4285714285714286" fill="white" stroke="white" stroke-width="0.2" />

<rect x="125.71428571428571" y="119.21428571428571" width="1.4285714285714286" height="1.4285714285714286" fill="white" stroke="white" stroke-width="0.2" />

<rect x="127.14285714285714" y="117.78571428571429" width="1.4285714285714286" height="1.4285714285714286" fill="white" stroke="white" stroke-width="0.2" />

<rect x="127.14285714285714" y="119.21428571428571" width="1.4285714285714286" height="1.4285714285714286" fill="white" stroke="white" stroke-width="0.2" />

<rect x="135.0" y="108.5" width="20.0" height="20.0" fill="black" stroke="none" />

<rect x="160.0" y="113.5" width="10.0" height="10.0" fill="black" stroke="none" />

<rect x="161.42857142857142" y="114.92857142857143" width="1.4285714285714286" height="1.4285714285714286" fill="white" stroke="white" stroke-width="0.2" />

<rect x="161.42857142857142" y="116.35714285714286" width="1.4285714285714286" height="1.4285714285714286" fill="white" stroke="white" stroke-width="0.2" />

<rect x="161.42857142857142" y="117.78571428571429" width="1.4285714285714286" height="1.4285714285714286" fill="white" stroke="white" stroke-width="0.2" />

<rect x="161.42857142857142" y="119.21428571428571" width="1.4285714285714286" height="1.4285714285714286" fill="white" stroke="white" stroke-width="0.2" />

<rect x="161.42857142857142" y="120.64285714285714" width="1.4285714285714286" height="1.4285714285714286" fill="white" stroke="white" stroke-width="0.2" />

<rect x="164.28571428571428" y="117.78571428571429" width="1.4285714285714286" height="1.4285714285714286" fill="white" stroke="white" stroke-width="0.2" />

<rect x="164.28571428571428" y="119.21428571428571" width="1.4285714285714286" height="1.4285714285714286" fill="white" stroke="white" stroke-width="0.2" />

<rect x="164.28571428571428" y="120.64285714285714" width="1.4285714285714286" height="1.4285714285714286" fill="white" stroke="white" stroke-width="0.2" />

<rect x="165.71428571428572" y="117.78571428571429" width="1.4285714285714286" height="1.4285714285714286" fill="white" stroke="white" stroke-width="0.2" />

<rect x="165.71428571428572" y="119.21428571428571" width="1.4285714285714286" height="1.4285714285714286" fill="white" stroke="white" stroke-width="0.2" />

<rect x="165.71428571428572" y="120.64285714285714" width="1.4285714285714286" height="1.4285714285714286" fill="white" stroke="white" stroke-width="0.2" />

<rect x="167.14285714285714" y="117.78571428571429" width="1.4285714285714286" height="1.4285714285714286" fill="white" stroke="white" stroke-width="0.2" />

<rect x="167.14285714285714" y="119.21428571428571" width="1.4285714285714286" height="1.4285714285714286" fill="white" stroke="white" stroke-width="0.2" />

<rect x="167.14285714285714" y="120.64285714285714" width="1.4285714285714286" height="1.4285714285714286" fill="white" stroke="white" stroke-width="0.2" />

<rect x="175.0" y="108.5" width="20.0" height="20.0" fill="black" stroke="none" />

<rect x="20.0" y="133.5" width="10.0" height="10.0" fill="black" stroke="none" />

<rect x="21.428571428571427" y="134.92857142857142" width="1.4285714285714286" height="1.4285714285714286" fill="white" stroke="white" stroke-width="0.2" />

<rect x="21.428571428571427" y="136.35714285714286" width="1.4285714285714286" height="1.4285714285714286" fill="white" stroke="white" stroke-width="0.2" />

<rect x="21.428571428571427" y="137.78571428571428" width="1.4285714285714286" height="1.4285714285714286" fill="white" stroke="white" stroke-width="0.2" />

<rect x="21.428571428571427" y="139.21428571428572" width="1.4285714285714286" height="1.4285714285714286" fill="white" stroke="white" stroke-width="0.2" />

<rect x="22.857142857142858" y="140.64285714285714" width="1.4285714285714286" height="1.4285714285714286" fill="white" stroke="white" stroke-width="0.2" />

<rect x="24.285714285714285" y="137.78571428571428" width="1.4285714285714286" height="1.4285714285714286" fill="white" stroke="white" stroke-width="0.2" />

<rect x="24.285714285714285" y="139.21428571428572" width="1.4285714285714286" height="1.4285714285714286" fill="white" stroke="white" stroke-width="0.2" />

<rect x="25.714285714285715" y="137.78571428571428" width="1.4285714285714286" height="1.4285714285714286" fill="white" stroke="white" stroke-width="0.2" />

<rect x="25.714285714285715" y="139.21428571428572" width="1.4285714285714286" height="1.4285714285714286" fill="white" stroke="white" stroke-width="0.2" />

<rect x="27.142857142857142" y="137.78571428571428" width="1.4285714285714286" height="1.4285714285714286" fill="white" stroke="white" stroke-width="0.2" />

<rect x="27.142857142857142" y="139.21428571428572" width="1.4285714285714286" height="1.4285714285714286" fill="white" stroke="white" stroke-width="0.2" />

<rect x="27.142857142857142" y="140.64285714285714" width="1.4285714285714286" height="1.4285714285714286" fill="white" stroke="white" stroke-width="0.2" />

<rect x="35.0" y="128.5" width="20.0" height="20.0" fill="black" stroke="none" />

<rect x="60.0" y="133.5" width="10.0" height="10.0" fill="black" stroke="none" />

<rect x="61.42857142857143" y="134.92857142857142" width="1.4285714285714286" height="1.4285714285714286" fill="white" stroke="white" stroke-width="0.2" />

<rect x="61.42857142857143" y="136.35714285714286" width="1.4285714285714286" height="1.4285714285714286" fill="white" stroke="white" stroke-width="0.2" />

<rect x="61.42857142857143" y="137.78571428571428" width="1.4285714285714286" height="1.4285714285714286" fill="white" stroke="white" stroke-width="0.2" />

<rect x="61.42857142857143" y="139.21428571428572" width="1.4285714285714286" height="1.4285714285714286" fill="white" stroke="white" stroke-width="0.2" />

<rect x="62.857142857142854" y="140.64285714285714" width="1.4285714285714286" height="1.4285714285714286" fill="white" stroke="white" stroke-width="0.2" />

<rect x="64.28571428571429" y="137.78571428571428" width="1.4285714285714286" height="1.4285714285714286" fill="white" stroke="white" stroke-width="0.2" />

<rect x="64.28571428571429" y="139.21428571428572" width="1.4285714285714286" height="1.4285714285714286" fill="white" stroke="white" stroke-width="0.2" />

<rect x="64.28571428571429" y="140.64285714285714" width="1.4285714285714286" height="1.4285714285714286" fill="white" stroke="white" stroke-width="0.2" />

<rect x="65.71428571428571" y="137.78571428571428" width="1.4285714285714286" height="1.4285714285714286" fill="white" stroke="white" stroke-width="0.2" />

<rect x="65.71428571428571" y="139.21428571428572" width="1.4285714285714286" height="1.4285714285714286" fill="white" stroke="white" stroke-width="0.2" />

<rect x="65.71428571428571" y="140.64285714285714" width="1.4285714285714286" height="1.4285714285714286" fill="white" stroke="white" stroke-width="0.2" />

<rect x="67.14285714285714" y="137.78571428571428" width="1.4285714285714286" height="1.4285714285714286" fill="white" stroke="white" stroke-width="0.2" />

<rect x="67.14285714285714" y="139.21428571428572" width="1.4285714285714286" height="1.4285714285714286" fill="white" stroke="white" stroke-width="0.2" />

<rect x="75.0" y="128.5" width="20.0" height="20.0" fill="black" stroke="none" />

<rect x="100.0" y="133.5" width="10.0" height="10.0" fill="black" stroke="none" />

<rect x="101.42857142857143" y="134.92857142857142" width="1.4285714285714286" height="1.4285714285714286" fill="white" stroke="white" stroke-width="0.2" />

<rect x="101.42857142857143" y="136.35714285714286" width="1.4285714285714286" height="1.4285714285714286" fill="white" stroke="white" stroke-width="0.2" />

<rect x="101.42857142857143" y="137.78571428571428" width="1.4285714285714286" height="1.4285714285714286" fill="white" stroke="white" stroke-width="0.2" />

<rect x="101.42857142857143" y="140.64285714285714" width="1.4285714285714286" height="1.4285714285714286" fill="white" stroke="white" stroke-width="0.2" />

<rect x="102.85714285714286" y="139.21428571428572" width="1.4285714285714286" height="1.4285714285714286" fill="white" stroke="white" stroke-width="0.2" />

<rect x="104.28571428571429" y="137.78571428571428" width="1.4285714285714286" height="1.4285714285714286" fill="white" stroke="white" stroke-width="0.2" />

<rect x="105.71428571428571" y="137.78571428571428" width="1.4285714285714286" height="1.4285714285714286" fill="white" stroke="white" stroke-width="0.2" />

<rect x="107.14285714285714" y="137.78571428571428" width="1.4285714285714286" height="1.4285714285714286" fill="white" stroke="white" stroke-width="0.2" />

<rect x="107.14285714285714" y="139.21428571428572" width="1.4285714285714286" height="1.4285714285714286" fill="white" stroke="white" stroke-width="0.2" />

<rect x="115.0" y="128.5" width="20.0" height="20.0" fill="black" stroke="none" />

<rect x="140.0" y="133.5" width="10.0" height="10.0" fill="black" stroke="none" />

<rect x="141.42857142857142" y="134.92857142857142" width="1.4285714285714286" height="1.4285714285714286" fill="white" stroke="white" stroke-width="0.2" />

<rect x="141.42857142857142" y="136.35714285714286" width="1.4285714285714286" height="1.4285714285714286" fill="white" stroke="white" stroke-width="0.2" />

<rect x="141.42857142857142" y="137.78571428571428" width="1.4285714285714286" height="1.4285714285714286" fill="white" stroke="white" stroke-width="0.2" />

<rect x="141.42857142857142" y="140.64285714285714" width="1.4285714285714286" height="1.4285714285714286" fill="white" stroke="white" stroke-width="0.2" />

<rect x="142.85714285714286" y="139.21428571428572" width="1.4285714285714286" height="1.4285714285714286" fill="white" stroke="white" stroke-width="0.2" />

<rect x="144.28571428571428" y="137.78571428571428" width="1.4285714285714286" height="1.4285714285714286" fill="white" stroke="white" stroke-width="0.2" />

<rect x="144.28571428571428" y="140.64285714285714" width="1.4285714285714286" height="1.4285714285714286" fill="white" stroke="white" stroke-width="0.2" />

<rect x="145.71428571428572" y="137.78571428571428" width="1.4285714285714286" height="1.4285714285714286" fill="white" stroke="white" stroke-width="0.2" />

<rect x="145.71428571428572" y="140.64285714285714" width="1.4285714285714286" height="1.4285714285714286" fill="white" stroke="white" stroke-width="0.2" />

<rect x="147.14285714285714" y="137.78571428571428" width="1.4285714285714286" height="1.4285714285714286" fill="white" stroke="white" stroke-width="0.2" />

<rect x="147.14285714285714" y="139.21428571428572" width="1.4285714285714286" height="1.4285714285714286" fill="white" stroke="white" stroke-width="0.2" />

<rect x="147.14285714285714" y="140.64285714285714" width="1.4285714285714286" height="1.4285714285714286" fill="white" stroke="white" stroke-width="0.2" />

<rect x="155.0" y="128.5" width="20.0" height="20.0" fill="black" stroke="none" />

<rect x="180.0" y="133.5" width="10.0" height="10.0" fill="black" stroke="none" />

<rect x="181.42857142857142" y="134.92857142857142" width="1.4285714285714286" height="1.4285714285714286" fill="white" stroke="white" stroke-width="0.2" />

<rect x="181.42857142857142" y="136.35714285714286" width="1.4285714285714286" height="1.4285714285714286" fill="white" stroke="white" stroke-width="0.2" />

<rect x="181.42857142857142" y="137.78571428571428" width="1.4285714285714286" height="1.4285714285714286" fill="white" stroke="white" stroke-width="0.2" />

<rect x="182.85714285714286" y="139.21428571428572" width="1.4285714285714286" height="1.4285714285714286" fill="white" stroke="white" stroke-width="0.2" />

<rect x="182.85714285714286" y="140.64285714285714" width="1.4285714285714286" height="1.4285714285714286" fill="white" stroke="white" stroke-width="0.2" />

<rect x="184.28571428571428" y="137.78571428571428" width="1.4285714285714286" height="1.4285714285714286" fill="white" stroke="white" stroke-width="0.2" />

<rect x="185.71428571428572" y="137.78571428571428" width="1.4285714285714286" height="1.4285714285714286" fill="white" stroke="white" stroke-width="0.2" />

<rect x="187.14285714285714" y="137.78571428571428" width="1.4285714285714286" height="1.4285714285714286" fill="white" stroke="white" stroke-width="0.2" />

<rect x="187.14285714285714" y="139.21428571428572" width="1.4285714285714286" height="1.4285714285714286" fill="white" stroke="white" stroke-width="0.2" />

<rect x="187.14285714285714" y="140.64285714285714" width="1.4285714285714286" height="1.4285714285714286" fill="white" stroke="white" stroke-width="0.2" />

<rect x="15.0" y="148.5" width="20.0" height="20.0" fill="black" stroke="none" />

<rect x="40.0" y="153.5" width="10.0" height="10.0" fill="black" stroke="none" />

<rect x="41.42857142857143" y="154.92857142857142" width="1.4285714285714286" height="1.4285714285714286" fill="white" stroke="white" stroke-width="0.2" />

<rect x="41.42857142857143" y="156.35714285714286" width="1.4285714285714286" height="1.4285714285714286" fill="white" stroke="white" stroke-width="0.2" />

<rect x="41.42857142857143" y="157.78571428571428" width="1.4285714285714286" height="1.4285714285714286" fill="white" stroke="white" stroke-width="0.2" />

<rect x="42.857142857142854" y="159.21428571428572" width="1.4285714285714286" height="1.4285714285714286" fill="white" stroke="white" stroke-width="0.2" />

<rect x="42.857142857142854" y="160.64285714285714" width="1.4285714285714286" height="1.4285714285714286" fill="white" stroke="white" stroke-width="0.2" />

<rect x="44.285714285714285" y="157.78571428571428" width="1.4285714285714286" height="1.4285714285714286" fill="white" stroke="white" stroke-width="0.2" />

<rect x="44.285714285714285" y="160.64285714285714" width="1.4285714285714286" height="1.4285714285714286" fill="white" stroke="white" stroke-width="0.2" />

<rect x="45.714285714285715" y="157.78571428571428" width="1.4285714285714286" height="1.4285714285714286" fill="white" stroke="white" stroke-width="0.2" />

<rect x="45.714285714285715" y="160.64285714285714" width="1.4285714285714286" height="1.4285714285714286" fill="white" stroke="white" stroke-width="0.2" />

<rect x="47.142857142857146" y="157.78571428571428" width="1.4285714285714286" height="1.4285714285714286" fill="white" stroke="white" stroke-width="0.2" />

<rect x="47.142857142857146" y="159.21428571428572" width="1.4285714285714286" height="1.4285714285714286" fill="white" stroke="white" stroke-width="0.2" />

<rect x="55.0" y="148.5" width="20.0" height="20.0" fill="black" stroke="none" />

<rect x="80.0" y="153.5" width="10.0" height="10.0" fill="black" stroke="none" />

<rect x="81.42857142857143" y="154.92857142857142" width="1.4285714285714286" height="1.4285714285714286" fill="white" stroke="white" stroke-width="0.2" />

<rect x="81.42857142857143" y="156.35714285714286" width="1.4285714285714286" height="1.4285714285714286" fill="white" stroke="white" stroke-width="0.2" />

<rect x="81.42857142857143" y="157.78571428571428" width="1.4285714285714286" height="1.4285714285714286" fill="white" stroke="white" stroke-width="0.2" />

<rect x="81.42857142857143" y="160.64285714285714" width="1.4285714285714286" height="1.4285714285714286" fill="white" stroke="white" stroke-width="0.2" />

<rect x="82.85714285714286" y="159.21428571428572" width="1.4285714285714286" height="1.4285714285714286" fill="white" stroke="white" stroke-width="0.2" />

<rect x="84.28571428571429" y="157.78571428571428" width="1.4285714285714286" height="1.4285714285714286" fill="white" stroke="white" stroke-width="0.2" />

<rect x="84.28571428571429" y="159.21428571428572" width="1.4285714285714286" height="1.4285714285714286" fill="white" stroke="white" stroke-width="0.2" />

<rect x="85.71428571428571" y="157.78571428571428" width="1.4285714285714286" height="1.4285714285714286" fill="white" stroke="white" stroke-width="0.2" />

<rect x="85.71428571428571" y="159.21428571428572" width="1.4285714285714286" height="1.4285714285714286" fill="white" stroke="white" stroke-width="0.2" />

<rect x="87.14285714285714" y="157.78571428571428" width="1.4285714285714286" height="1.4285714285714286" fill="white" stroke="white" stroke-width="0.2" />

<rect x="95.0" y="148.5" width="20.0" height="20.0" fill="black" stroke="none" />

<rect x="120.0" y="153.5" width="10.0" height="10.0" fill="black" stroke="none" />

<rect x="121.42857142857143" y="154.92857142857142" width="1.4285714285714286" height="1.4285714285714286" fill="white" stroke="white" stroke-width="0.2" />

<rect x="121.42857142857143" y="156.35714285714286" width="1.4285714285714286" height="1.4285714285714286" fill="white" stroke="white" stroke-width="0.2" />

<rect x="121.42857142857143" y="157.78571428571428" width="1.4285714285714286" height="1.4285714285714286" fill="white" stroke="white" stroke-width="0.2" />

<rect x="121.42857142857143" y="160.64285714285714" width="1.4285714285714286" height="1.4285714285714286" fill="white" stroke="white" stroke-width="0.2" />

<rect x="122.85714285714286" y="159.21428571428572" width="1.4285714285714286" height="1.4285714285714286" fill="white" stroke="white" stroke-width="0.2" />

<rect x="124.28571428571429" y="157.78571428571428" width="1.4285714285714286" height="1.4285714285714286" fill="white" stroke="white" stroke-width="0.2" />

<rect x="124.28571428571429" y="159.21428571428572" width="1.4285714285714286" height="1.4285714285714286" fill="white" stroke="white" stroke-width="0.2" />

<rect x="124.28571428571429" y="160.64285714285714" width="1.4285714285714286" height="1.4285714285714286" fill="white" stroke="white" stroke-width="0.2" />

<rect x="125.71428571428571" y="157.78571428571428" width="1.4285714285714286" height="1.4285714285714286" fill="white" stroke="white" stroke-width="0.2" />

<rect x="125.71428571428571" y="159.21428571428572" width="1.4285714285714286" height="1.4285714285714286" fill="white" stroke="white" stroke-width="0.2" />

<rect x="125.71428571428571" y="160.64285714285714" width="1.4285714285714286" height="1.4285714285714286" fill="white" stroke="white" stroke-width="0.2" />

<rect x="127.14285714285714" y="157.78571428571428" width="1.4285714285714286" height="1.4285714285714286" fill="white" stroke="white" stroke-width="0.2" />

<rect x="127.14285714285714" y="160.64285714285714" width="1.4285714285714286" height="1.4285714285714286" fill="white" stroke="white" stroke-width="0.2" />

<rect x="135.0" y="148.5" width="20.0" height="20.0" fill="black" stroke="none" />

<rect x="160.0" y="153.5" width="10.0" height="10.0" fill="black" stroke="none" />

<rect x="161.42857142857142" y="154.92857142857142" width="1.4285714285714286" height="1.4285714285714286" fill="white" stroke="white" stroke-width="0.2" />

<rect x="161.42857142857142" y="156.35714285714286" width="1.4285714285714286" height="1.4285714285714286" fill="white" stroke="white" stroke-width="0.2" />

<rect x="161.42857142857142" y="157.78571428571428" width="1.4285714285714286" height="1.4285714285714286" fill="white" stroke="white" stroke-width="0.2" />

<rect x="162.85714285714286" y="159.21428571428572" width="1.4285714285714286" height="1.4285714285714286" fill="white" stroke="white" stroke-width="0.2" />

<rect x="162.85714285714286" y="160.64285714285714" width="1.4285714285714286" height="1.4285714285714286" fill="white" stroke="white" stroke-width="0.2" />

<rect x="164.28571428571428" y="157.78571428571428" width="1.4285714285714286" height="1.4285714285714286" fill="white" stroke="white" stroke-width="0.2" />

<rect x="164.28571428571428" y="159.21428571428572" width="1.4285714285714286" height="1.4285714285714286" fill="white" stroke="white" stroke-width="0.2" />

<rect x="165.71428571428572" y="157.78571428571428" width="1.4285714285714286" height="1.4285714285714286" fill="white" stroke="white" stroke-width="0.2" />

<rect x="165.71428571428572" y="159.21428571428572" width="1.4285714285714286" height="1.4285714285714286" fill="white" stroke="white" stroke-width="0.2" />

<rect x="167.14285714285714" y="157.78571428571428" width="1.4285714285714286" height="1.4285714285714286" fill="white" stroke="white" stroke-width="0.2" />

<rect x="167.14285714285714" y="160.64285714285714" width="1.4285714285714286" height="1.4285714285714286" fill="white" stroke="white" stroke-width="0.2" />

<rect x="175.0" y="148.5" width="20.0" height="20.0" fill="black" stroke="none" />

<rect x="20.0" y="173.5" width="10.0" height="10.0" fill="black" stroke="none" />

<rect x="21.428571428571427" y="174.92857142857142" width="1.4285714285714286" height="1.4285714285714286" fill="white" stroke="white" stroke-width="0.2" />

<rect x="21.428571428571427" y="176.35714285714286" width="1.4285714285714286" height="1.4285714285714286" fill="white" stroke="white" stroke-width="0.2" />

<rect x="21.428571428571427" y="177.78571428571428" width="1.4285714285714286" height="1.4285714285714286" fill="white" stroke="white" stroke-width="0.2" />

<rect x="22.857142857142858" y="179.21428571428572" width="1.4285714285714286" height="1.4285714285714286" fill="white" stroke="white" stroke-width="0.2" />

<rect x="22.857142857142858" y="180.64285714285714" width="1.4285714285714286" height="1.4285714285714286" fill="white" stroke="white" stroke-width="0.2" />

<rect x="24.285714285714285" y="177.78571428571428" width="1.4285714285714286" height="1.4285714285714286" fill="white" stroke="white" stroke-width="0.2" />

<rect x="24.285714285714285" y="179.21428571428572" width="1.4285714285714286" height="1.4285714285714286" fill="white" stroke="white" stroke-width="0.2" />

<rect x="24.285714285714285" y="180.64285714285714" width="1.4285714285714286" height="1.4285714285714286" fill="white" stroke="white" stroke-width="0.2" />

<rect x="25.714285714285715" y="177.78571428571428" width="1.4285714285714286" height="1.4285714285714286" fill="white" stroke="white" stroke-width="0.2" />

<rect x="25.714285714285715" y="179.21428571428572" width="1.4285714285714286" height="1.4285714285714286" fill="white" stroke="white" stroke-width="0.2" />

<rect x="25.714285714285715" y="180.64285714285714" width="1.4285714285714286" height="1.4285714285714286" fill="white" stroke="white" stroke-width="0.2" />

<rect x="27.142857142857142" y="177.78571428571428" width="1.4285714285714286" height="1.4285714285714286" fill="white" stroke="white" stroke-width="0.2" />

<rect x="35.0" y="168.5" width="20.0" height="20.0" fill="black" stroke="none" />

<rect x="60.0" y="173.5" width="10.0" height="10.0" fill="black" stroke="none" />

<rect x="61.42857142857143" y="174.92857142857142" width="1.4285714285714286" height="1.4285714285714286" fill="white" stroke="white" stroke-width="0.2" />

<rect x="61.42857142857143" y="176.35714285714286" width="1.4285714285714286" height="1.4285714285714286" fill="white" stroke="white" stroke-width="0.2" />

<rect x="61.42857142857143" y="179.21428571428572" width="1.4285714285714286" height="1.4285714285714286" fill="white" stroke="white" stroke-width="0.2" />

<rect x="61.42857142857143" y="180.64285714285714" width="1.4285714285714286" height="1.4285714285714286" fill="white" stroke="white" stroke-width="0.2" />

<rect x="62.857142857142854" y="177.78571428571428" width="1.4285714285714286" height="1.4285714285714286" fill="white" stroke="white" stroke-width="0.2" />

<rect x="67.14285714285714" y="177.78571428571428" width="1.4285714285714286" height="1.4285714285714286" fill="white" stroke="white" stroke-width="0.2" />

<rect x="75.0" y="168.5" width="20.0" height="20.0" fill="black" stroke="none" />

<rect x="100.0" y="173.5" width="10.0" height="10.0" fill="black" stroke="none" />

<rect x="101.42857142857143" y="174.92857142857142" width="1.4285714285714286" height="1.4285714285714286" fill="white" stroke="white" stroke-width="0.2" />

<rect x="101.42857142857143" y="176.35714285714286" width="1.4285714285714286" height="1.4285714285714286" fill="white" stroke="white" stroke-width="0.2" />

<rect x="101.42857142857143" y="179.21428571428572" width="1.4285714285714286" height="1.4285714285714286" fill="white" stroke="white" stroke-width="0.2" />

<rect x="101.42857142857143" y="180.64285714285714" width="1.4285714285714286" height="1.4285714285714286" fill="white" stroke="white" stroke-width="0.2" />

<rect x="102.85714285714286" y="177.78571428571428" width="1.4285714285714286" height="1.4285714285714286" fill="white" stroke="white" stroke-width="0.2" />

<rect x="104.28571428571429" y="180.64285714285714" width="1.4285714285714286" height="1.4285714285714286" fill="white" stroke="white" stroke-width="0.2" />

<rect x="105.71428571428571" y="180.64285714285714" width="1.4285714285714286" height="1.4285714285714286" fill="white" stroke="white" stroke-width="0.2" />

<rect x="107.14285714285714" y="177.78571428571428" width="1.4285714285714286" height="1.4285714285714286" fill="white" stroke="white" stroke-width="0.2" />

<rect x="107.14285714285714" y="180.64285714285714" width="1.4285714285714286" height="1.4285714285714286" fill="white" stroke="white" stroke-width="0.2" />

<rect x="115.0" y="168.5" width="20.0" height="20.0" fill="black" stroke="none" />

<rect x="140.0" y="173.5" width="10.0" height="10.0" fill="black" stroke="none" />

<rect x="141.42857142857142" y="174.92857142857142" width="1.4285714285714286" height="1.4285714285714286" fill="white" stroke="white" stroke-width="0.2" />

<rect x="141.42857142857142" y="176.35714285714286" width="1.4285714285714286" height="1.4285714285714286" fill="white" stroke="white" stroke-width="0.2" />

<rect x="141.42857142857142" y="179.21428571428572" width="1.4285714285714286" height="1.4285714285714286" fill="white" stroke="white" stroke-width="0.2" />

<rect x="142.85714285714286" y="177.78571428571428" width="1.4285714285714286" height="1.4285714285714286" fill="white" stroke="white" stroke-width="0.2" />

<rect x="142.85714285714286" y="180.64285714285714" width="1.4285714285714286" height="1.4285714285714286" fill="white" stroke="white" stroke-width="0.2" />

<rect x="147.14285714285714" y="177.78571428571428" width="1.4285714285714286" height="1.4285714285714286" fill="white" stroke="white" stroke-width="0.2" />

<rect x="147.14285714285714" y="180.64285714285714" width="1.4285714285714286" height="1.4285714285714286" fill="white" stroke="white" stroke-width="0.2" />

<rect x="155.0" y="168.5" width="20.0" height="20.0" fill="black" stroke="none" />

<rect x="180.0" y="173.5" width="10.0" height="10.0" fill="black" stroke="none" />

<rect x="181.42857142857142" y="174.92857142857142" width="1.4285714285714286" height="1.4285714285714286" fill="white" stroke="white" stroke-width="0.2" />

<rect x="181.42857142857142" y="176.35714285714286" width="1.4285714285714286" height="1.4285714285714286" fill="white" stroke="white" stroke-width="0.2" />

<rect x="181.42857142857142" y="179.21428571428572" width="1.4285714285714286" height="1.4285714285714286" fill="white" stroke="white" stroke-width="0.2" />

<rect x="182.85714285714286" y="177.78571428571428" width="1.4285714285714286" height="1.4285714285714286" fill="white" stroke="white" stroke-width="0.2" />

<rect x="182.85714285714286" y="180.64285714285714" width="1.4285714285714286" height="1.4285714285714286" fill="white" stroke="white" stroke-width="0.2" />

<rect x="184.28571428571428" y="180.64285714285714" width="1.4285714285714286" height="1.4285714285714286" fill="white" stroke="white" stroke-width="0.2" />

<rect x="185.71428571428572" y="180.64285714285714" width="1.4285714285714286" height="1.4285714285714286" fill="white" stroke="white" stroke-width="0.2" />

<rect x="187.14285714285714" y="177.78571428571428" width="1.4285714285714286" height="1.4285714285714286" fill="white" stroke="white" stroke-width="0.2" />

<rect x="15.0" y="188.5" width="20.0" height="20.0" fill="black" stroke="none" />

<rect x="40.0" y="193.5" width="10.0" height="10.0" fill="black" stroke="none" />

<rect x="41.42857142857143" y="194.92857142857142" width="1.4285714285714286" height="1.4285714285714286" fill="white" stroke="white" stroke-width="0.2" />

<rect x="41.42857142857143" y="196.35714285714286" width="1.4285714285714286" height="1.4285714285714286" fill="white" stroke="white" stroke-width="0.2" />

<rect x="41.42857142857143" y="199.21428571428572" width="1.4285714285714286" height="1.4285714285714286" fill="white" stroke="white" stroke-width="0.2" />

<rect x="41.42857142857143" y="200.64285714285714" width="1.4285714285714286" height="1.4285714285714286" fill="white" stroke="white" stroke-width="0.2" />

<rect x="42.857142857142854" y="197.78571428571428" width="1.4285714285714286" height="1.4285714285714286" fill="white" stroke="white" stroke-width="0.2" />

<rect x="44.285714285714285" y="199.21428571428572" width="1.4285714285714286" height="1.4285714285714286" fill="white" stroke="white" stroke-width="0.2" />

<rect x="45.714285714285715" y="199.21428571428572" width="1.4285714285714286" height="1.4285714285714286" fill="white" stroke="white" stroke-width="0.2" />

<rect x="47.142857142857146" y="197.78571428571428" width="1.4285714285714286" height="1.4285714285714286" fill="white" stroke="white" stroke-width="0.2" />

<rect x="47.142857142857146" y="199.21428571428572" width="1.4285714285714286" height="1.4285714285714286" fill="white" stroke="white" stroke-width="0.2" />

<rect x="55.0" y="188.5" width="20.0" height="20.0" fill="black" stroke="none" />

<rect x="80.0" y="193.5" width="10.0" height="10.0" fill="black" stroke="none" />

<rect x="81.42857142857143" y="194.92857142857142" width="1.4285714285714286" height="1.4285714285714286" fill="white" stroke="white" stroke-width="0.2" />

<rect x="81.42857142857143" y="196.35714285714286" width="1.4285714285714286" height="1.4285714285714286" fill="white" stroke="white" stroke-width="0.2" />

<rect x="81.42857142857143" y="199.21428571428572" width="1.4285714285714286" height="1.4285714285714286" fill="white" stroke="white" stroke-width="0.2" />

<rect x="81.42857142857143" y="200.64285714285714" width="1.4285714285714286" height="1.4285714285714286" fill="white" stroke="white" stroke-width="0.2" />

<rect x="82.85714285714286" y="197.78571428571428" width="1.4285714285714286" height="1.4285714285714286" fill="white" stroke="white" stroke-width="0.2" />

<rect x="84.28571428571429" y="199.21428571428572" width="1.4285714285714286" height="1.4285714285714286" fill="white" stroke="white" stroke-width="0.2" />

<rect x="84.28571428571429" y="200.64285714285714" width="1.4285714285714286" height="1.4285714285714286" fill="white" stroke="white" stroke-width="0.2" />

<rect x="85.71428571428571" y="199.21428571428572" width="1.4285714285714286" height="1.4285714285714286" fill="white" stroke="white" stroke-width="0.2" />

<rect x="85.71428571428571" y="200.64285714285714" width="1.4285714285714286" height="1.4285714285714286" fill="white" stroke="white" stroke-width="0.2" />

<rect x="87.14285714285714" y="197.78571428571428" width="1.4285714285714286" height="1.4285714285714286" fill="white" stroke="white" stroke-width="0.2" />

<rect x="87.14285714285714" y="199.21428571428572" width="1.4285714285714286" height="1.4285714285714286" fill="white" stroke="white" stroke-width="0.2" />

<rect x="87.14285714285714" y="200.64285714285714" width="1.4285714285714286" height="1.4285714285714286" fill="white" stroke="white" stroke-width="0.2" />

<rect x="95.0" y="188.5" width="20.0" height="20.0" fill="black" stroke="none" />

<rect x="120.0" y="193.5" width="10.0" height="10.0" fill="black" stroke="none" />

<rect x="121.42857142857143" y="194.92857142857142" width="1.4285714285714286" height="1.4285714285714286" fill="white" stroke="white" stroke-width="0.2" />

<rect x="121.42857142857143" y="196.35714285714286" width="1.4285714285714286" height="1.4285714285714286" fill="white" stroke="white" stroke-width="0.2" />

<rect x="121.42857142857143" y="199.21428571428572" width="1.4285714285714286" height="1.4285714285714286" fill="white" stroke="white" stroke-width="0.2" />

<rect x="122.85714285714286" y="197.78571428571428" width="1.4285714285714286" height="1.4285714285714286" fill="white" stroke="white" stroke-width="0.2" />

<rect x="122.85714285714286" y="200.64285714285714" width="1.4285714285714286" height="1.4285714285714286" fill="white" stroke="white" stroke-width="0.2" />

<rect x="124.28571428571429" y="199.21428571428572" width="1.4285714285714286" height="1.4285714285714286" fill="white" stroke="white" stroke-width="0.2" />

<rect x="125.71428571428571" y="199.21428571428572" width="1.4285714285714286" height="1.4285714285714286" fill="white" stroke="white" stroke-width="0.2" />

<rect x="127.14285714285714" y="197.78571428571428" width="1.4285714285714286" height="1.4285714285714286" fill="white" stroke="white" stroke-width="0.2" />

<rect x="127.14285714285714" y="199.21428571428572" width="1.4285714285714286" height="1.4285714285714286" fill="white" stroke="white" stroke-width="0.2" />

<rect x="127.14285714285714" y="200.64285714285714" width="1.4285714285714286" height="1.4285714285714286" fill="white" stroke="white" stroke-width="0.2" />

<rect x="135.0" y="188.5" width="20.0" height="20.0" fill="black" stroke="none" />

<rect x="160.0" y="193.5" width="10.0" height="10.0" fill="black" stroke="none" />

<rect x="161.42857142857142" y="194.92857142857142" width="1.4285714285714286" height="1.4285714285714286" fill="white" stroke="white" stroke-width="0.2" />

<rect x="161.42857142857142" y="196.35714285714286" width="1.4285714285714286" height="1.4285714285714286" fill="white" stroke="white" stroke-width="0.2" />

<rect x="161.42857142857142" y="199.21428571428572" width="1.4285714285714286" height="1.4285714285714286" fill="white" stroke="white" stroke-width="0.2" />

<rect x="162.85714285714286" y="197.78571428571428" width="1.4285714285714286" height="1.4285714285714286" fill="white" stroke="white" stroke-width="0.2" />

<rect x="162.85714285714286" y="200.64285714285714" width="1.4285714285714286" height="1.4285714285714286" fill="white" stroke="white" stroke-width="0.2" />

<rect x="164.28571428571428" y="199.21428571428572" width="1.4285714285714286" height="1.4285714285714286" fill="white" stroke="white" stroke-width="0.2" />

<rect x="164.28571428571428" y="200.64285714285714" width="1.4285714285714286" height="1.4285714285714286" fill="white" stroke="white" stroke-width="0.2" />

<rect x="165.71428571428572" y="199.21428571428572" width="1.4285714285714286" height="1.4285714285714286" fill="white" stroke="white" stroke-width="0.2" />

<rect x="165.71428571428572" y="200.64285714285714" width="1.4285714285714286" height="1.4285714285714286" fill="white" stroke="white" stroke-width="0.2" />

<rect x="167.14285714285714" y="197.78571428571428" width="1.4285714285714286" height="1.4285714285714286" fill="white" stroke="white" stroke-width="0.2" />

<rect x="167.14285714285714" y="199.21428571428572" width="1.4285714285714286" height="1.4285714285714286" fill="white" stroke="white" stroke-width="0.2" />

<rect x="175.0" y="188.5" width="20.0" height="20.0" fill="black" stroke="none" />

<rect x="20.0" y="213.5" width="10.0" height="10.0" fill="black" stroke="none" />

<rect x="21.428571428571427" y="214.92857142857142" width="1.4285714285714286" height="1.4285714285714286" fill="white" stroke="white" stroke-width="0.2" />

<rect x="21.428571428571427" y="216.35714285714286" width="1.4285714285714286" height="1.4285714285714286" fill="white" stroke="white" stroke-width="0.2" />

<rect x="21.428571428571427" y="220.64285714285714" width="1.4285714285714286" height="1.4285714285714286" fill="white" stroke="white" stroke-width="0.2" />

<rect x="22.857142857142858" y="217.78571428571428" width="1.4285714285714286" height="1.4285714285714286" fill="white" stroke="white" stroke-width="0.2" />

<rect x="22.857142857142858" y="219.21428571428572" width="1.4285714285714286" height="1.4285714285714286" fill="white" stroke="white" stroke-width="0.2" />

<rect x="27.142857142857142" y="217.78571428571428" width="1.4285714285714286" height="1.4285714285714286" fill="white" stroke="white" stroke-width="0.2" />

<rect x="27.142857142857142" y="219.21428571428572" width="1.4285714285714286" height="1.4285714285714286" fill="white" stroke="white" stroke-width="0.2" />

<rect x="35.0" y="208.5" width="20.0" height="20.0" fill="black" stroke="none" />

<rect x="60.0" y="213.5" width="10.0" height="10.0" fill="black" stroke="none" />

<rect x="61.42857142857143" y="214.92857142857142" width="1.4285714285714286" height="1.4285714285714286" fill="white" stroke="white" stroke-width="0.2" />

<rect x="61.42857142857143" y="216.35714285714286" width="1.4285714285714286" height="1.4285714285714286" fill="white" stroke="white" stroke-width="0.2" />

<rect x="61.42857142857143" y="220.64285714285714" width="1.4285714285714286" height="1.4285714285714286" fill="white" stroke="white" stroke-width="0.2" />

<rect x="62.857142857142854" y="217.78571428571428" width="1.4285714285714286" height="1.4285714285714286" fill="white" stroke="white" stroke-width="0.2" />

<rect x="62.857142857142854" y="219.21428571428572" width="1.4285714285714286" height="1.4285714285714286" fill="white" stroke="white" stroke-width="0.2" />

<rect x="64.28571428571429" y="220.64285714285714" width="1.4285714285714286" height="1.4285714285714286" fill="white" stroke="white" stroke-width="0.2" />

<rect x="65.71428571428571" y="220.64285714285714" width="1.4285714285714286" height="1.4285714285714286" fill="white" stroke="white" stroke-width="0.2" />

<rect x="67.14285714285714" y="217.78571428571428" width="1.4285714285714286" height="1.4285714285714286" fill="white" stroke="white" stroke-width="0.2" />

<rect x="67.14285714285714" y="219.21428571428572" width="1.4285714285714286" height="1.4285714285714286" fill="white" stroke="white" stroke-width="0.2" />

<rect x="67.14285714285714" y="220.64285714285714" width="1.4285714285714286" height="1.4285714285714286" fill="white" stroke="white" stroke-width="0.2" />

<rect x="75.0" y="208.5" width="20.0" height="20.0" fill="black" stroke="none" />

<rect x="100.0" y="213.5" width="10.0" height="10.0" fill="black" stroke="none" />

<rect x="101.42857142857143" y="214.92857142857142" width="1.4285714285714286" height="1.4285714285714286" fill="white" stroke="white" stroke-width="0.2" />

<rect x="101.42857142857143" y="216.35714285714286" width="1.4285714285714286" height="1.4285714285714286" fill="white" stroke="white" stroke-width="0.2" />

<rect x="102.85714285714286" y="217.78571428571428" width="1.4285714285714286" height="1.4285714285714286" fill="white" stroke="white" stroke-width="0.2" />

<rect x="102.85714285714286" y="219.21428571428572" width="1.4285714285714286" height="1.4285714285714286" fill="white" stroke="white" stroke-width="0.2" />

<rect x="102.85714285714286" y="220.64285714285714" width="1.4285714285714286" height="1.4285714285714286" fill="white" stroke="white" stroke-width="0.2" />

<rect x="107.14285714285714" y="217.78571428571428" width="1.4285714285714286" height="1.4285714285714286" fill="white" stroke="white" stroke-width="0.2" />

<rect x="107.14285714285714" y="219.21428571428572" width="1.4285714285714286" height="1.4285714285714286" fill="white" stroke="white" stroke-width="0.2" />

<rect x="107.14285714285714" y="220.64285714285714" width="1.4285714285714286" height="1.4285714285714286" fill="white" stroke="white" stroke-width="0.2" />

<rect x="115.0" y="208.5" width="20.0" height="20.0" fill="black" stroke="none" />

<rect x="140.0" y="213.5" width="10.0" height="10.0" fill="black" stroke="none" />

<rect x="141.42857142857142" y="214.92857142857142" width="1.4285714285714286" height="1.4285714285714286" fill="white" stroke="white" stroke-width="0.2" />

<rect x="141.42857142857142" y="216.35714285714286" width="1.4285714285714286" height="1.4285714285714286" fill="white" stroke="white" stroke-width="0.2" />

<rect x="142.85714285714286" y="217.78571428571428" width="1.4285714285714286" height="1.4285714285714286" fill="white" stroke="white" stroke-width="0.2" />

<rect x="142.85714285714286" y="219.21428571428572" width="1.4285714285714286" height="1.4285714285714286" fill="white" stroke="white" stroke-width="0.2" />

<rect x="142.85714285714286" y="220.64285714285714" width="1.4285714285714286" height="1.4285714285714286" fill="white" stroke="white" stroke-width="0.2" />

<rect x="144.28571428571428" y="220.64285714285714" width="1.4285714285714286" height="1.4285714285714286" fill="white" stroke="white" stroke-width="0.2" />

<rect x="145.71428571428572" y="220.64285714285714" width="1.4285714285714286" height="1.4285714285714286" fill="white" stroke="white" stroke-width="0.2" />

<rect x="147.14285714285714" y="217.78571428571428" width="1.4285714285714286" height="1.4285714285714286" fill="white" stroke="white" stroke-width="0.2" />

<rect x="147.14285714285714" y="219.21428571428572" width="1.4285714285714286" height="1.4285714285714286" fill="white" stroke="white" stroke-width="0.2" />

<rect x="155.0" y="208.5" width="20.0" height="20.0" fill="black" stroke="none" />

<rect x="180.0" y="213.5" width="10.0" height="10.0" fill="black" stroke="none" />

<rect x="181.42857142857142" y="214.92857142857142" width="1.4285714285714286" height="1.4285714285714286" fill="white" stroke="white" stroke-width="0.2" />

<rect x="181.42857142857142" y="216.35714285714286" width="1.4285714285714286" height="1.4285714285714286" fill="white" stroke="white" stroke-width="0.2" />

<rect x="181.42857142857142" y="220.64285714285714" width="1.4285714285714286" height="1.4285714285714286" fill="white" stroke="white" stroke-width="0.2" />

<rect x="182.85714285714286" y="217.78571428571428" width="1.4285714285714286" height="1.4285714285714286" fill="white" stroke="white" stroke-width="0.2" />

<rect x="182.85714285714286" y="219.21428571428572" width="1.4285714285714286" height="1.4285714285714286" fill="white" stroke="white" stroke-width="0.2" />

<rect x="184.28571428571428" y="219.21428571428572" width="1.4285714285714286" height="1.4285714285714286" fill="white" stroke="white" stroke-width="0.2" />

<rect x="185.71428571428572" y="219.21428571428572" width="1.4285714285714286" height="1.4285714285714286" fill="white" stroke="white" stroke-width="0.2" />

<rect x="187.14285714285714" y="217.78571428571428" width="1.4285714285714286" height="1.4285714285714286" fill="white" stroke="white" stroke-width="0.2" />

<rect x="15.0" y="228.5" width="20.0" height="20.0" fill="black" stroke="none" />

<rect x="40.0" y="233.5" width="10.0" height="10.0" fill="black" stroke="none" />

<rect x="41.42857142857143" y="234.92857142857142" width="1.4285714285714286" height="1.4285714285714286" fill="white" stroke="white" stroke-width="0.2" />

<rect x="41.42857142857143" y="236.35714285714286" width="1.4285714285714286" height="1.4285714285714286" fill="white" stroke="white" stroke-width="0.2" />

<rect x="41.42857142857143" y="240.64285714285714" width="1.4285714285714286" height="1.4285714285714286" fill="white" stroke="white" stroke-width="0.2" />

<rect x="42.857142857142854" y="237.78571428571428" width="1.4285714285714286" height="1.4285714285714286" fill="white" stroke="white" stroke-width="0.2" />

<rect x="42.857142857142854" y="239.21428571428572" width="1.4285714285714286" height="1.4285714285714286" fill="white" stroke="white" stroke-width="0.2" />

<rect x="44.285714285714285" y="239.21428571428572" width="1.4285714285714286" height="1.4285714285714286" fill="white" stroke="white" stroke-width="0.2" />

<rect x="44.285714285714285" y="240.64285714285714" width="1.4285714285714286" height="1.4285714285714286" fill="white" stroke="white" stroke-width="0.2" />

<rect x="45.714285714285715" y="239.21428571428572" width="1.4285714285714286" height="1.4285714285714286" fill="white" stroke="white" stroke-width="0.2" />

<rect x="45.714285714285715" y="240.64285714285714" width="1.4285714285714286" height="1.4285714285714286" fill="white" stroke="white" stroke-width="0.2" />

<rect x="47.142857142857146" y="237.78571428571428" width="1.4285714285714286" height="1.4285714285714286" fill="white" stroke="white" stroke-width="0.2" />

<rect x="47.142857142857146" y="240.64285714285714" width="1.4285714285714286" height="1.4285714285714286" fill="white" stroke="white" stroke-width="0.2" />

<rect x="55.0" y="228.5" width="20.0" height="20.0" fill="black" stroke="none" />

<rect x="80.0" y="233.5" width="10.0" height="10.0" fill="black" stroke="none" />

<rect x="81.42857142857143" y="234.92857142857142" width="1.4285714285714286" height="1.4285714285714286" fill="white" stroke="white" stroke-width="0.2" />

<rect x="81.42857142857143" y="236.35714285714286" width="1.4285714285714286" height="1.4285714285714286" fill="white" stroke="white" stroke-width="0.2" />

<rect x="82.85714285714286" y="237.78571428571428" width="1.4285714285714286" height="1.4285714285714286" fill="white" stroke="white" stroke-width="0.2" />

<rect x="82.85714285714286" y="239.21428571428572" width="1.4285714285714286" height="1.4285714285714286" fill="white" stroke="white" stroke-width="0.2" />

<rect x="82.85714285714286" y="240.64285714285714" width="1.4285714285714286" height="1.4285714285714286" fill="white" stroke="white" stroke-width="0.2" />

<rect x="84.28571428571429" y="239.21428571428572" width="1.4285714285714286" height="1.4285714285714286" fill="white" stroke="white" stroke-width="0.2" />

<rect x="85.71428571428571" y="239.21428571428572" width="1.4285714285714286" height="1.4285714285714286" fill="white" stroke="white" stroke-width="0.2" />

<rect x="87.14285714285714" y="237.78571428571428" width="1.4285714285714286" height="1.4285714285714286" fill="white" stroke="white" stroke-width="0.2" />

<rect x="87.14285714285714" y="240.64285714285714" width="1.4285714285714286" height="1.4285714285714286" fill="white" stroke="white" stroke-width="0.2" />

<rect x="95.0" y="228.5" width="20.0" height="20.0" fill="black" stroke="none" />

<rect x="120.0" y="233.5" width="10.0" height="10.0" fill="black" stroke="none" />

<rect x="121.42857142857143" y="234.92857142857142" width="1.4285714285714286" height="1.4285714285714286" fill="white" stroke="white" stroke-width="0.2" />

<rect x="121.42857142857143" y="236.35714285714286" width="1.4285714285714286" height="1.4285714285714286" fill="white" stroke="white" stroke-width="0.2" />

<rect x="122.85714285714286" y="237.78571428571428" width="1.4285714285714286" height="1.4285714285714286" fill="white" stroke="white" stroke-width="0.2" />

<rect x="122.85714285714286" y="239.21428571428572" width="1.4285714285714286" height="1.4285714285714286" fill="white" stroke="white" stroke-width="0.2" />

<rect x="122.85714285714286" y="240.64285714285714" width="1.4285714285714286" height="1.4285714285714286" fill="white" stroke="white" stroke-width="0.2" />

<rect x="124.28571428571429" y="239.21428571428572" width="1.4285714285714286" height="1.4285714285714286" fill="white" stroke="white" stroke-width="0.2" />

<rect x="124.28571428571429" y="240.64285714285714" width="1.4285714285714286" height="1.4285714285714286" fill="white" stroke="white" stroke-width="0.2" />

<rect x="125.71428571428571" y="239.21428571428572" width="1.4285714285714286" height="1.4285714285714286" fill="white" stroke="white" stroke-width="0.2" />

<rect x="125.71428571428571" y="240.64285714285714" width="1.4285714285714286" height="1.4285714285714286" fill="white" stroke="white" stroke-width="0.2" />

<rect x="127.14285714285714" y="237.78571428571428" width="1.4285714285714286" height="1.4285714285714286" fill="white" stroke="white" stroke-width="0.2" />

<rect x="135.0" y="228.5" width="20.0" height="20.0" fill="black" stroke="none" />

<rect x="160.0" y="233.5" width="10.0" height="10.0" fill="black" stroke="none" />

<rect x="161.42857142857142" y="234.92857142857142" width="1.4285714285714286" height="1.4285714285714286" fill="white" stroke="white" stroke-width="0.2" />

<rect x="161.42857142857142" y="236.35714285714286" width="1.4285714285714286" height="1.4285714285714286" fill="white" stroke="white" stroke-width="0.2" />

<rect x="161.42857142857142" y="239.21428571428572" width="1.4285714285714286" height="1.4285714285714286" fill="white" stroke="white" stroke-width="0.2" />

<rect x="161.42857142857142" y="240.64285714285714" width="1.4285714285714286" height="1.4285714285714286" fill="white" stroke="white" stroke-width="0.2" />

<rect x="162.85714285714286" y="237.78571428571428" width="1.4285714285714286" height="1.4285714285714286" fill="white" stroke="white" stroke-width="0.2" />

<rect x="164.28571428571428" y="237.78571428571428" width="1.4285714285714286" height="1.4285714285714286" fill="white" stroke="white" stroke-width="0.2" />

<rect x="165.71428571428572" y="237.78571428571428" width="1.4285714285714286" height="1.4285714285714286" fill="white" stroke="white" stroke-width="0.2" />

<rect x="175.0" y="228.5" width="20.0" height="20.0" fill="black" stroke="none" />

<rect x="20.0" y="253.5" width="10.0" height="10.0" fill="black" stroke="none" />

<rect x="21.428571428571427" y="254.92857142857142" width="1.4285714285714286" height="1.4285714285714286" fill="white" stroke="white" stroke-width="0.2" />

<rect x="21.428571428571427" y="256.35714285714283" width="1.4285714285714286" height="1.4285714285714286" fill="white" stroke="white" stroke-width="0.2" />

<rect x="21.428571428571427" y="259.2142857142857" width="1.4285714285714286" height="1.4285714285714286" fill="white" stroke="white" stroke-width="0.2" />

<rect x="21.428571428571427" y="260.64285714285717" width="1.4285714285714286" height="1.4285714285714286" fill="white" stroke="white" stroke-width="0.2" />

<rect x="22.857142857142858" y="257.7857142857143" width="1.4285714285714286" height="1.4285714285714286" fill="white" stroke="white" stroke-width="0.2" />

<rect x="24.285714285714285" y="257.7857142857143" width="1.4285714285714286" height="1.4285714285714286" fill="white" stroke="white" stroke-width="0.2" />

<rect x="24.285714285714285" y="260.64285714285717" width="1.4285714285714286" height="1.4285714285714286" fill="white" stroke="white" stroke-width="0.2" />

<rect x="25.714285714285715" y="257.7857142857143" width="1.4285714285714286" height="1.4285714285714286" fill="white" stroke="white" stroke-width="0.2" />

<rect x="25.714285714285715" y="260.64285714285717" width="1.4285714285714286" height="1.4285714285714286" fill="white" stroke="white" stroke-width="0.2" />

<rect x="27.142857142857142" y="260.64285714285717" width="1.4285714285714286" height="1.4285714285714286" fill="white" stroke="white" stroke-width="0.2" />

<rect x="35.0" y="248.5" width="20.0" height="20.0" fill="black" stroke="none" />

<rect x="60.0" y="253.5" width="10.0" height="10.0" fill="black" stroke="none" />

<rect x="61.42857142857143" y="254.92857142857142" width="1.4285714285714286" height="1.4285714285714286" fill="white" stroke="white" stroke-width="0.2" />

<rect x="61.42857142857143" y="256.35714285714283" width="1.4285714285714286" height="1.4285714285714286" fill="white" stroke="white" stroke-width="0.2" />

<rect x="61.42857142857143" y="259.2142857142857" width="1.4285714285714286" height="1.4285714285714286" fill="white" stroke="white" stroke-width="0.2" />

<rect x="62.857142857142854" y="257.7857142857143" width="1.4285714285714286" height="1.4285714285714286" fill="white" stroke="white" stroke-width="0.2" />

<rect x="62.857142857142854" y="260.64285714285717" width="1.4285714285714286" height="1.4285714285714286" fill="white" stroke="white" stroke-width="0.2" />

<rect x="64.28571428571429" y="257.7857142857143" width="1.4285714285714286" height="1.4285714285714286" fill="white" stroke="white" stroke-width="0.2" />

<rect x="65.71428571428571" y="257.7857142857143" width="1.4285714285714286" height="1.4285714285714286" fill="white" stroke="white" stroke-width="0.2" />

<rect x="67.14285714285714" y="260.64285714285717" width="1.4285714285714286" height="1.4285714285714286" fill="white" stroke="white" stroke-width="0.2" />

<rect x="75.0" y="248.5" width="20.0" height="20.0" fill="black" stroke="none" />

<rect x="100.0" y="253.5" width="10.0" height="10.0" fill="black" stroke="none" />

<rect x="101.42857142857143" y="254.92857142857142" width="1.4285714285714286" height="1.4285714285714286" fill="white" stroke="white" stroke-width="0.2" />

<rect x="101.42857142857143" y="256.35714285714283" width="1.4285714285714286" height="1.4285714285714286" fill="white" stroke="white" stroke-width="0.2" />

<rect x="101.42857142857143" y="259.2142857142857" width="1.4285714285714286" height="1.4285714285714286" fill="white" stroke="white" stroke-width="0.2" />

<rect x="102.85714285714286" y="257.7857142857143" width="1.4285714285714286" height="1.4285714285714286" fill="white" stroke="white" stroke-width="0.2" />

<rect x="102.85714285714286" y="260.64285714285717" width="1.4285714285714286" height="1.4285714285714286" fill="white" stroke="white" stroke-width="0.2" />

<rect x="104.28571428571429" y="257.7857142857143" width="1.4285714285714286" height="1.4285714285714286" fill="white" stroke="white" stroke-width="0.2" />

<rect x="104.28571428571429" y="260.64285714285717" width="1.4285714285714286" height="1.4285714285714286" fill="white" stroke="white" stroke-width="0.2" />

<rect x="105.71428571428571" y="257.7857142857143" width="1.4285714285714286" height="1.4285714285714286" fill="white" stroke="white" stroke-width="0.2" />

<rect x="105.71428571428571" y="260.64285714285717" width="1.4285714285714286" height="1.4285714285714286" fill="white" stroke="white" stroke-width="0.2" />

<rect x="115.0" y="248.5" width="20.0" height="20.0" fill="black" stroke="none" />

<rect x="140.0" y="253.5" width="10.0" height="10.0" fill="black" stroke="none" />

<rect x="141.42857142857142" y="254.92857142857142" width="1.4285714285714286" height="1.4285714285714286" fill="white" stroke="white" stroke-width="0.2" />

<rect x="141.42857142857142" y="256.35714285714283" width="1.4285714285714286" height="1.4285714285714286" fill="white" stroke="white" stroke-width="0.2" />

<rect x="141.42857142857142" y="259.2142857142857" width="1.4285714285714286" height="1.4285714285714286" fill="white" stroke="white" stroke-width="0.2" />

<rect x="141.42857142857142" y="260.64285714285717" width="1.4285714285714286" height="1.4285714285714286" fill="white" stroke="white" stroke-width="0.2" />

<rect x="142.85714285714286" y="257.7857142857143" width="1.4285714285714286" height="1.4285714285714286" fill="white" stroke="white" stroke-width="0.2" />

<rect x="144.28571428571428" y="257.7857142857143" width="1.4285714285714286" height="1.4285714285714286" fill="white" stroke="white" stroke-width="0.2" />

<rect x="144.28571428571428" y="259.2142857142857" width="1.4285714285714286" height="1.4285714285714286" fill="white" stroke="white" stroke-width="0.2" />

<rect x="145.71428571428572" y="257.7857142857143" width="1.4285714285714286" height="1.4285714285714286" fill="white" stroke="white" stroke-width="0.2" />

<rect x="145.71428571428572" y="259.2142857142857" width="1.4285714285714286" height="1.4285714285714286" fill="white" stroke="white" stroke-width="0.2" />

<rect x="147.14285714285714" y="259.2142857142857" width="1.4285714285714286" height="1.4285714285714286" fill="white" stroke="white" stroke-width="0.2" />

<rect x="155.0" y="248.5" width="20.0" height="20.0" fill="black" stroke="none" />

<rect x="180.0" y="253.5" width="10.0" height="10.0" fill="black" stroke="none" />

<rect x="181.42857142857142" y="254.92857142857142" width="1.4285714285714286" height="1.4285714285714286" fill="white" stroke="white" stroke-width="0.2" />

<rect x="181.42857142857142" y="256.35714285714283" width="1.4285714285714286" height="1.4285714285714286" fill="white" stroke="white" stroke-width="0.2" />

<rect x="181.42857142857142" y="259.2142857142857" width="1.4285714285714286" height="1.4285714285714286" fill="white" stroke="white" stroke-width="0.2" />

<rect x="181.42857142857142" y="260.64285714285717" width="1.4285714285714286" height="1.4285714285714286" fill="white" stroke="white" stroke-width="0.2" />

<rect x="182.85714285714286" y="257.7857142857143" width="1.4285714285714286" height="1.4285714285714286" fill="white" stroke="white" stroke-width="0.2" />

<rect x="184.28571428571428" y="257.7857142857143" width="1.4285714285714286" height="1.4285714285714286" fill="white" stroke="white" stroke-width="0.2" />

<rect x="184.28571428571428" y="259.2142857142857" width="1.4285714285714286" height="1.4285714285714286" fill="white" stroke="white" stroke-width="0.2" />

<rect x="184.28571428571428" y="260.64285714285717" width="1.4285714285714286" height="1.4285714285714286" fill="white" stroke="white" stroke-width="0.2" />

<rect x="185.71428571428572" y="257.7857142857143" width="1.4285714285714286" height="1.4285714285714286" fill="white" stroke="white" stroke-width="0.2" />

<rect x="185.71428571428572" y="259.2142857142857" width="1.4285714285714286" height="1.4285714285714286" fill="white" stroke="white" stroke-width="0.2" />

<rect x="185.71428571428572" y="260.64285714285717" width="1.4285714285714286" height="1.4285714285714286" fill="white" stroke="white" stroke-width="0.2" />

<rect x="187.14285714285714" y="259.2142857142857" width="1.4285714285714286" height="1.4285714285714286" fill="white" stroke="white" stroke-width="0.2" />

<rect x="187.14285714285714" y="260.64285714285717" width="1.4285714285714286" height="1.4285714285714286" fill="white" stroke="white" stroke-width="0.2" />

</g>

</svg>

